<svg id="Layer_1" height="512" viewBox="0 0 512 512" width="512" xmlns="http://www.w3.org/2000/svg" data-name="Layer 1"><path d="m387.54 91.55-240.99-.01c-48.28 11.44-79.47 29.59-79.47 50.02 0 28.06 58.86 51.82 140 59.8 18.93 1.87 39.07 2.87 59.96 2.87s41.03-1 59.96-2.87c81.14-7.98 140-31.74 140-59.8 0-20.43-31.19-38.57-79.46-50.01z" fill="#5f6a78"/><path d="m418.65 31.36a31.791 31.791 0 0 0 12.36 7.64 31.631 31.631 0 0 0 -20 20 31.623 31.623 0 0 0 -20-20 31.631 31.631 0 0 0 20-20 31.558 31.558 0 0 0 7.64 12.36z" fill="#fb6771"/><path d="m377.5 459.82a12.915 12.915 0 0 1 .52 3.64c0 20.73-49.47 37.54-110.48 37.54s-110.48-16.81-110.48-37.54a13.47 13.47 0 0 1 .32-2.89c4.34-19.38 52-34.64 110.16-34.64 57.4 0 104.58 14.87 109.96 33.89z" fill="#71c3d7"/><path d="m327.03 201.71 50.64 258.07-.17.04c-5.38-19.02-52.56-33.89-109.96-33.89-58.16 0-105.82 15.26-110.16 34.64l-.06-.01 49.73-258.85.03-.35c18.93 1.87 39.07 2.87 59.96 2.87s41.03-1 59.96-2.87z" fill="#aedeea"/><path d="m72.46 254.85c.23 0 .47 0 .7-.01a23.716 23.716 0 0 0 -8.93 18.54c0 .23 0 .47.01.7a23.724 23.724 0 0 0 -19.24-8.92 23.671 23.671 0 0 0 8.93-18.54c0-.23 0-.47-.01-.7a23.716 23.716 0 0 0 18.54 8.93z" fill="#fb6771"/><path d="m397.45 141.56.18.37c-27.72 13.4-75.85 22.26-130.59 22.26-53.68 0-101.02-8.52-128.96-21.49l-1.45-1.14a130.41 130.41 0 1 1 260.82 0z" fill="#e5f5fd"/><path d="m237.08 201.36c-81.14-7.98-140-31.74-140-59.8 0-20.429 31.187-38.579 79.465-50.019h-29.995c-48.28 11.44-79.47 29.59-79.47 50.02 0 28.06 58.86 51.82 140 59.8 18.93 1.87 39.07 2.87 59.96 2.87q7.57 0 15-.176c-15.548-.362-30.603-1.277-44.96-2.695z" fill="#475673"/><path d="m168.08 142.7-1.45-1.14a130.453 130.453 0 0 1 115.41-129.705 130.525 130.525 0 0 0 -135.49 79.685 130.234 130.234 0 0 0 -9.92 50.02l1.45 1.14c27.94 12.97 75.28 21.49 128.96 21.49q7.585 0 14.99-.224c-47.43-1.423-88.646-9.519-113.95-21.266z" fill="#a6b7d0"/><g fill="#284268"><path d="m169.224 164.254a14.748 14.748 0 0 0 -16.845 12.305 6 6 0 1 0 11.857 1.849 2.746 2.746 0 1 1 5.425.852 6 6 0 1 0 11.858 1.848 14.774 14.774 0 0 0 -12.295-16.854z"/><path d="m209.216 169.477a14.748 14.748 0 0 0 -16.845 12.305 6 6 0 0 0 11.858 1.848 2.745 2.745 0 1 1 5.424.852 6 6 0 1 0 11.858 1.849 14.772 14.772 0 0 0 -12.295-16.854z"/><path d="m228.685 29.872a136.464 136.464 0 0 0 -37.579 29.734 6 6 0 0 0 8.977 7.965 124.5 124.5 0 0 1 34.283-27.129 6 6 0 1 0 -5.681-10.57z"/><path d="m184.241 78.13a6 6 0 0 0 -8.229 2.069c-2.153 3.6-4.16 7.34-5.97 11.119a6 6 0 1 0 10.824 5.182c1.65-3.447 3.482-6.858 5.445-10.14a6 6 0 0 0 -2.07-8.23z"/><path d="m389.117 44.692a25.741 25.741 0 0 1 16.2 16.2 6 6 0 0 0 11.385 0 25.744 25.744 0 0 1 16.2-16.2 6 6 0 0 0 0-11.384 25.744 25.744 0 0 1 -16.2-16.2 6 6 0 0 0 -11.385 0 25.741 25.741 0 0 1 -16.2 16.2 6 6 0 0 0 0 11.384zm21.894-13.015a37.988 37.988 0 0 0 7.322 7.323 37.988 37.988 0 0 0 -7.322 7.323 37.993 37.993 0 0 0 -7.323-7.323 37.993 37.993 0 0 0 7.323-7.323z"/><path d="m72.983 248.838a17.758 17.758 0 0 1 -14.374-6.661 6 6 0 0 0 -10.688 3.923 17.808 17.808 0 0 1 -6.663 14.379 6 6 0 0 0 3.921 10.688 17.791 17.791 0 0 1 14.373 6.661 6 6 0 0 0 10.688-3.928 17.8 17.8 0 0 1 6.66-14.373 6 6 0 0 0 -3.919-10.689zm-12.833 14.082a30.111 30.111 0 0 0 -3.989-1.849 30.2 30.2 0 0 0 1.85-3.991 30.111 30.111 0 0 0 3.989 1.849 30.142 30.142 0 0 0 -1.85 3.991z"/><circle cx="443.005" cy="64" r="10"/><circle cx="95.073" cy="270" r="10"/><circle cx="462.001" cy="77" r="7"/><circle cx="111.07" cy="246" r="7"/><path d="m230.653 234.979a6 6 0 0 0 -7.024 4.76l-16.5 85.906a6 6 0 1 0 11.785 2.264l16.5-85.909a6 6 0 0 0 -4.761-7.021z"/><path d="m209.539 344.883a6 6 0 0 0 -7.024 4.761l-2.365 12.309a6 6 0 1 0 11.786 2.264l2.364-12.31a6 6 0 0 0 -4.761-7.024z"/><path d="m325.45 377.682 3.7 18.878a6 6 0 0 0 11.776-2.311l-3.7-18.878a6 6 0 0 0 -11.776 2.311z"/><path d="m309.279 264.112a6 6 0 0 0 -4.732 7.043l14.884 75.852a6 6 0 0 0 11.775-2.311l-14.884-75.851a6 6 0 0 0 -7.043-4.733z"/><path d="m391.817 86.414a136.326 136.326 0 0 0 -249.556 0c-52.374 12.865-81.182 32.4-81.182 55.147 0 19.866 21.706 37.169 62.773 50.04 21.879 6.857 47.841 11.952 76.136 15.066l-48.736 253.685.065.013a19.5 19.5 0 0 0 -.255 3.1c0 28.279 60.011 43.537 116.477 43.537s116.479-15.258 116.479-43.537a19.483 19.483 0 0 0 -.607-4.806l.147-.029-49.444-251.964c28.286-3.114 54.24-8.209 76.114-15.064 41.066-12.871 62.772-30.174 62.772-50.04 0-22.75-28.808-42.282-81.183-55.148zm-124.778-69.414c67.474 0 122.572 54.06 124.361 121.192-28.446 12.559-74.455 20-124.362 20-49.7 0-95.9-7.458-124.362-20 1.792-67.132 56.889-121.192 124.363-121.192zm104.979 446.463c0 13.169-39.747 31.537-104.479 31.537s-104.477-18.368-104.477-31.537 39.747-31.536 104.477-31.536 104.479 18.373 104.479 31.536zm-4.254-23.006c-21.664-13.449-61.764-20.53-100.225-20.53s-78.587 7.086-100.248 20.545l44.688-232.615c17.7 1.564 36.188 2.375 55.06 2.375s37.371-.811 55.08-2.377zm38.875-260.306c-37.2 11.66-86.781 18.081-139.6 18.081s-102.4-6.421-139.6-18.081c-34.039-10.668-54.36-25.094-54.36-38.589 0-11.9 17.065-28.6 63.967-41.405a136.2 136.2 0 0 0 -6.416 41.405 5.992 5.992 0 0 0 3.048 5.219 5.946 5.946 0 0 0 1.873 1.365c29.759 13.805 78.913 22.047 131.488 22.047 53.794 0 103.588-8.545 133.2-22.858a6 6 0 0 0 3.2-6.912 136.178 136.178 0 0 0 -6.4-40.266c46.9 12.8 63.968 29.5 63.968 41.405-.007 13.495-20.329 27.921-54.368 38.589z"/></g></svg>