<svg id="Capa_1" enable-background="new 0 0 512.007 512.007" height="512" viewBox="0 0 512.007 512.007" width="512" xmlns="http://www.w3.org/2000/svg"><g><path d="m170.041 117.032-153.373 34.295 21.333 96.433 153.373-34.294z" fill="#ffe14d"/><path d="m430.678 66.599-54.327-20.696-211.556 47.304c-8.065 1.804-13.152 9.792-11.376 17.863l25.276 114.806c.857 3.893 3.229 7.285 6.592 9.427 2.428 1.545 5.226 2.348 8.058 2.348 1.093 0 2.19-.119 3.273-.361l211.557-47.305 36.326-49.302z" fill="#ffa64d"/><path d="m38.001 247.76 153.373-34.294-10.667-38.217-14.639-6.726-124.094 27.747-14.639 13.274z" fill="#fb3"/><path d="m178.696 225.877c.857 3.893 3.229 7.285 6.592 9.427 2.428 1.545 5.226 2.348 8.058 2.348 1.093 0 2.19-.119 3.273-.361l211.557-47.305 36.326-49.302-6.165-23.041-46.073.302-226.195 50.578z" fill="#ed8600"/><path d="m389.098 492.163-83.358-244.743c-2.07-6.077-7.778-10.164-14.199-10.164s-12.129 4.086-14.199 10.164l-83.358 244.743c-2.671 7.842 1.521 16.364 9.363 19.035 7.844 2.673 16.364-1.521 19.035-9.363l54.159-159.014v154.178c0 8.284 6.716 15 15 15s15-6.716 15-15v-154.178l54.159 159.014c2.125 6.24 7.954 10.168 14.198 10.168 1.604 0 3.234-.259 4.837-.805 7.842-2.671 12.034-11.193 9.363-19.035z" fill="#ffa64d"/><path d="m39.652 270.556c-6.889 0-13.093-4.773-14.635-11.778l-24.663-112.019c-1.781-8.09 3.334-16.092 11.424-17.874 8.089-1.782 16.094 3.332 17.875 11.424l24.663 112.019c1.781 8.09-3.334 16.093-11.424 17.874-1.086.239-2.172.354-3.24.354z" fill="#ffa64d"/><path d="m462.678 26.6-86.327 19.303 31.824 144.082 86.326-19.302z" fill="#ffe14d"/><path d="m408.175 189.985 86.326-19.302-15.911-62.042-14.639-6.726-71.688 16.029z" fill="#fb3"/><path d="m25.017 258.778c1.542 7.005 7.746 11.778 14.635 11.778 1.068 0 2.154-.115 3.24-.354 8.09-1.781 13.205-9.783 11.424-17.874l-12.342-56.058-29.277 6.546z" fill="#ed8600"/><path d="m306.541 496.999v-154.178l54.159 159.014c2.125 6.24 7.954 10.168 14.198 10.168 1.604 0 3.234-.259 4.837-.805 7.842-2.671 12.034-11.193 9.363-19.035l-83.358-244.743c-2.07-6.078-7.778-10.164-14.199-10.164v274.743c8.284-.001 15-6.716 15-15z" fill="#ed8600"/><path d="m496.989 197.279c-6.889 0-13.093-4.773-14.635-11.778l-36.827-167.27c-1.781-8.09 3.334-16.093 11.424-17.874 8.088-1.782 16.094 3.332 17.875 11.424l36.827 167.27c1.781 8.09-3.334 16.093-11.424 17.874-1.086.239-2.172.354-3.24.354z" fill="#ffa64d"/><path d="m482.354 185.501c1.542 7.005 7.746 11.778 14.635 11.778 1.068 0 2.154-.115 3.24-.354 8.09-1.781 13.205-9.783 11.424-17.874l-18.424-83.683-29.278 6.547z" fill="#ed8600"/><path d="m349.184 195.025c-3.425-15.553-12.681-28.812-26.063-37.334-13.282-8.457-29.047-11.224-44.395-7.795-31.752 7.1-51.862 38.864-44.83 70.805 3.425 15.553 12.681 28.812 26.063 37.334 9.564 6.09 20.414 9.23 31.47 9.23 4.298 0 8.629-.475 12.925-1.435 31.752-7.1 51.862-38.863 44.83-70.805z" fill="#ffe14d"/><path d="m323.122 157.692c-9.595-6.11-20.488-9.232-31.581-9.212v118.783c4.261-.008 8.555-.48 12.813-1.432 31.752-7.1 51.862-38.864 44.83-70.806-3.425-15.553-12.681-28.811-26.062-37.333z" fill="#fb3"/></g></svg>